  0
SECTION
  2
HEADER
  9
$ACADVER
  1
AC1009
  0
ENDSEC
  0
SECTION
  2
ENTITIES
  0
POLYLINE
  5
90
  8
Layer_0
  62
0
  66
1
  10
0
  20
0
  30
0
  0
VERTEX
  5
90
  8
Layer_0
  10
212.73715
  20
123.11259
  42
0.27506956
  0
VERTEX
  5
91
  8
Layer_0
  10
211.02844
  20
126.26221
  42
0.27506933
  0
VERTEX
  5
92
  8
Layer_0
  10
207.44519
  20
126.26219
  42
0.27506724
  0
VERTEX
  5
93
  8
Layer_0
  10
205.73651
  20
123.11258
  0
SEQEND
  0
POLYLINE
  5
95
  8
Layer_0
  62
0
  66
1
  10
0
  20
0
  30
0
  0
VERTEX
  5
95
  8
Layer_0
  10
205.73953
  20
123.12348
  42
0.3910941
  0
VERTEX
  5
96
  8
Layer_0
  10
165.24171
  20
79.267517
  42
0.39109385
  0
VERTEX
  5
97
  8
Layer_0
  10
205.73967
  20
35.41169
  0
SEQEND
  0
POLYLINE
  5
99
  8
Layer_0
  62
0
  66
1
  10
0
  20
0
  30
0
  0
VERTEX
  5
99
  8
Layer_0
  10
205.73651
  20
35.401421
  42
0.27507023
  0
VERTEX
  5
9a
  8
Layer_0
  10
207.44522
  20
32.251816
  42
0.27507199
  0
VERTEX
  5
9b
  8
Layer_0
  10
211.02846
  20
32.251823
  42
0.27506892
  0
VERTEX
  5
9c
  8
Layer_0
  10
212.73715
  20
35.401436
  0
SEQEND
  0
POLYLINE
  5
9e
  8
Layer_0
  62
0
  66
1
  10
0
  20
0
  30
0
  0
VERTEX
  5
9e
  8
Layer_0
  10
212.73413
  20
35.411705
  42
0.39109405
  0
VERTEX
  5
9f
  8
Layer_0
  10
253.23193
  20
79.267662
  42
0.39109395
  0
VERTEX
  5
a0
  8
Layer_0
  10
212.73399
  20
123.12349
  0
SEQEND
  0
POLYLINE
  5
a2
  8
Layer_0
  62
0
  66
1
  10
0
  20
0
  30
0
  0
VERTEX
  5
a2
  8
Layer_0
  10
492.72986
  20
123.11259
  42
0.27506874
  0
VERTEX
  5
a3
  8
Layer_0
  10
491.02115
  20
126.26221
  42
0.27506933
  0
VERTEX
  5
a4
  8
Layer_0
  10
487.4379
  20
126.26219
  42
0.27506965
  0
VERTEX
  5
a5
  8
Layer_0
  10
485.72922
  20
123.11258
  0
SEQEND
  0
POLYLINE
  5
a7
  8
Layer_0
  62
0
  66
1
  10
0
  20
0
  30
0
  0
VERTEX
  5
a7
  8
Layer_0
  10
485.73224
  20
123.12348
  42
0.391094
  0
VERTEX
  5
a8
  8
Layer_0
  10
445.23444
  20
79.267517
  42
0.39109396
  0
VERTEX
  5
a9
  8
Layer_0
  10
485.73239
  20
35.41169
  0
SEQEND
  0
POLYLINE
  5
ab
  8
Layer_0
  62
0
  66
1
  10
0
  20
0
  30
0
  0
VERTEX
  5
ab
  8
Layer_0
  10
485.72922
  20
35.401421
  42
0.27507023
  0
VERTEX
  5
ac
  8
Layer_0
  10
487.43793
  20
32.251816
  42
0.27507036
  0
VERTEX
  5
ad
  8
Layer_0
  10
491.02118
  20
32.251823
  42
0.2750697
  0
VERTEX
  5
ae
  8
Layer_0
  10
492.72986
  20
35.401436
  0
SEQEND
  0
POLYLINE
  5
b0
  8
Layer_0
  62
0
  66
1
  10
0
  20
0
  30
0
  0
VERTEX
  5
b0
  8
Layer_0
  10
492.72684
  20
35.411705
  42
0.39109404
  0
VERTEX
  5
b1
  8
Layer_0
  10
533.22467
  20
79.267662
  42
0.39109385
  0
VERTEX
  5
b2
  8
Layer_0
  10
492.72668
  20
123.12349
  0
SEQEND
  0
POLYLINE
  5
b4
  8
Layer_0
  62
0
  66
1
  10
0
  20
0
  30
0
  0
VERTEX
  5
b4
  8
Layer_0
  10
282.7323
  20
165.38724
  42
0.39109405
  0
VERTEX
  5
b5
  8
Layer_0
  10
323.2301
  20
209.24319
  42
0.391094
  0
VERTEX
  5
b6
  8
Layer_0
  10
282.73218
  20
253.09901
  0
SEQEND
  0
POLYLINE
  5
b8
  8
Layer_0
  62
0
  66
1
  10
0
  20
0
  30
0
  0
VERTEX
  5
b8
  8
Layer_0
  10
282.73532
  20
253.10928
  42
0.27506941
  0
VERTEX
  5
b9
  8
Layer_0
  10
281.02661
  20
256.25891
  42
0.27506954
  0
VERTEX
  5
ba
  8
Layer_0
  10
277.44336
  20
256.25888
  42
0.27506964
  0
VERTEX
  5
bb
  8
Layer_0
  10
275.73468
  20
253.10927
  0
SEQEND
  0
POLYLINE
  5
bd
  8
Layer_0
  62
0
  66
1
  10
0
  20
0
  30
0
  0
VERTEX
  5
bd
  8
Layer_0
  10
275.7377
  20
253.099
  42
0.39109405
  0
VERTEX
  5
be
  8
Layer_0
  10
235.2399
  20
209.24304
  42
0.39109405
  0
VERTEX
  5
bf
  8
Layer_0
  10
275.73785
  20
165.38722
  0
SEQEND
  0
POLYLINE
  5
c1
  8
Layer_0
  62
0
  66
1
  10
0
  20
0
  30
0
  0
VERTEX
  5
c1
  8
Layer_0
  10
275.73468
  20
165.3981
  42
0.27506874
  0
VERTEX
  5
c2
  8
Layer_0
  10
277.44339
  20
162.2485
  42
0.27506851
  0
VERTEX
  5
c3
  8
Layer_0
  10
281.02664
  20
162.2485
  42
0.27506931
  0
VERTEX
  5
c4
  8
Layer_0
  10
282.73532
  20
165.39813
  0
SEQEND
  0
POLYLINE
  5
c6
  8
Layer_0
  62
0
  66
1
  10
0
  20
0
  30
0
  0
VERTEX
  5
c6
  8
Layer_0
  10
352.73349
  20
123.11259
  42
0.27506875
  0
VERTEX
  5
c7
  8
Layer_0
  10
351.02481
  20
126.26221
  42
0.27506912
  0
VERTEX
  5
c8
  8
Layer_0
  10
347.44156
  20
126.26219
  42
0.27506965
  0
VERTEX
  5
c9
  8
Layer_0
  10
345.73288
  20
123.11258
  0
SEQEND
  0
POLYLINE
  5
cb
  8
Layer_0
  62
0
  66
1
  10
0
  20
0
  30
0
  0
VERTEX
  5
cb
  8
Layer_0
  10
345.7359
  20
123.12348
  42
0.3910941
  0
VERTEX
  5
cc
  8
Layer_0
  10
305.23807
  20
79.267517
  42
0.39109396
  0
VERTEX
  5
cd
  8
Layer_0
  10
345.73602
  20
35.41169
  0
SEQEND
  0
POLYLINE
  5
cf
  8
Layer_0
  62
0
  66
1
  10
0
  20
0
  30
0
  0
VERTEX
  5
cf
  8
Layer_0
  10
345.73288
  20
35.401421
  42
0.27506982
  0
VERTEX
  5
d0
  8
Layer_0
  10
347.44156
  20
32.251816
  42
0.27507015
  0
VERTEX
  5
d1
  8
Layer_0
  10
351.02481
  20
32.251823
  42
0.2750697
  0
VERTEX
  5
d2
  8
Layer_0
  10
352.73349
  20
35.401436
  0
SEQEND
  0
POLYLINE
  5
d4
  8
Layer_0
  62
0
  66
1
  10
0
  20
0
  30
0
  0
VERTEX
  5
d4
  8
Layer_0
  10
352.7305
  20
35.411705
  42
0.391094
  0
VERTEX
  5
d5
  8
Layer_0
  10
393.2283
  20
79.267662
  42
0.39109398
  0
VERTEX
  5
d6
  8
Layer_0
  10
352.73035
  20
123.12349
  0
SEQEND
  0
POLYLINE
  5
d8
  8
Layer_0
  62
0
  66
1
  10
0
  20
0
  30
0
  0
VERTEX
  5
d8
  8
Layer_0
  10
135.74135
  20
253.099
  42
0.39109386
  0
VERTEX
  5
d9
  8
Layer_0
  10
95.24353
  20
209.24304
  42
0.39109366
  0
VERTEX
  5
da
  8
Layer_0
  10
135.7415
  20
165.38722
  0
SEQEND
  0
POLYLINE
  5
dc
  8
Layer_0
  62
0
  66
1
  10
0
  20
0
  30
0
  0
VERTEX
  5
dc
  8
Layer_0
  10
135.73834
  20
165.3981
  42
0.27507275
  0
VERTEX
  5
dd
  8
Layer_0
  10
137.44704
  20
162.2485
  42
0.27506769
  0
VERTEX
  5
de
  8
Layer_0
  10
141.03029
  20
162.2485
  42
0.27507009
  0
VERTEX
  5
df
  8
Layer_0
  10
142.73897
  20
165.39813
  0
SEQEND
  0
POLYLINE
  5
e1
  8
Layer_0
  62
0
  66
1
  10
0
  20
0
  30
0
  0
VERTEX
  5
e1
  8
Layer_0
  10
142.73595
  20
165.38724
  42
0.3910941
  0
VERTEX
  5
e2
  8
Layer_0
  10
183.23376
  20
209.24319
  42
0.39109404
  0
VERTEX
  5
e3
  8
Layer_0
  10
142.73581
  20
253.09901
  0
SEQEND
  0
POLYLINE
  5
e5
  8
Layer_0
  62
0
  66
1
  10
0
  20
0
  30
0
  0
VERTEX
  5
e5
  8
Layer_0
  10
142.73897
  20
253.10928
  42
0.2750686
  0
VERTEX
  5
e6
  8
Layer_0
  10
141.03027
  20
256.25891
  42
0.27507036
  0
VERTEX
  5
e7
  8
Layer_0
  10
137.44702
  20
256.25888
  42
0.27507205
  0
VERTEX
  5
e8
  8
Layer_0
  10
135.73834
  20
253.10927
  0
SEQEND
  0
POLYLINE
  5
ea
  8
Layer_0
  62
0
  66
1
  10
0
  20
0
  30
0
  0
VERTEX
  5
ea
  8
Layer_0
  10
422.72867
  20
165.38724
  42
0.39109409
  0
VERTEX
  5
eb
  8
Layer_0
  10
463.22647
  20
209.24319
  42
0.39109405
  0
VERTEX
  5
ec
  8
Layer_0
  10
422.72852
  20
253.09901
  0
SEQEND
  0
POLYLINE
  5
ee
  8
Layer_0
  62
0
  66
1
  10
0
  20
0
  30
0
  0
VERTEX
  5
ee
  8
Layer_0
  10
422.73169
  20
253.10928
  42
0.27506982
  0
VERTEX
  5
ef
  8
Layer_0
  10
421.02298
  20
256.25891
  42
0.27507036
  0
VERTEX
  5
f0
  8
Layer_0
  10
417.43973
  20
256.25888
  42
0.27506964
  0
VERTEX
  5
f1
  8
Layer_0
  10
415.73105
  20
253.10927
  0
SEQEND
  0
POLYLINE
  5
f3
  8
Layer_0
  62
0
  66
1
  10
0
  20
0
  30
0
  0
VERTEX
  5
f3
  8
Layer_0
  10
415.73407
  20
253.099
  42
0.39109401
  0
VERTEX
  5
f4
  8
Layer_0
  10
375.23627
  20
209.24304
  42
0.39109398
  0
VERTEX
  5
f5
  8
Layer_0
  10
415.73419
  20
165.38722
  0
SEQEND
  0
POLYLINE
  5
f7
  8
Layer_0
  62
0
  66
1
  10
0
  20
0
  30
0
  0
VERTEX
  5
f7
  8
Layer_0
  10
415.73105
  20
165.3981
  42
0.27506915
  0
VERTEX
  5
f8
  8
Layer_0
  10
417.43976
  20
162.2485
  42
0.27506933
  0
VERTEX
  5
f9
  8
Layer_0
  10
421.02301
  20
162.2485
  42
0.27506931
  0
VERTEX
  5
fa
  8
Layer_0
  10
422.73169
  20
165.39813
  0
SEQEND
  0
POLYLINE
  5
fc
  8
Layer_0
  62
0
  66
1
  10
0
  20
0
  30
0
  0
VERTEX
  5
fc
  8
Layer_0
  10
562.72504
  20
165.38724
  42
0.3910941
  0
VERTEX
  5
fd
  8
Layer_0
  10
603.22284
  20
209.24319
  42
0.39109406
  0
VERTEX
  5
fe
  8
Layer_0
  10
562.72485
  20
253.09901
  0
SEQEND
  0
POLYLINE
  5
100
  8
Layer_0
  62
0
  66
1
  10
0
  20
0
  30
0
  0
VERTEX
  5
100
  8
Layer_0
  10
562.72803
  20
253.10928
  42
0.27507023
  0
VERTEX
  5
101
  8
Layer_0
  10
561.01935
  20
256.25891
  42
0.27506872
  0
VERTEX
  5
102
  8
Layer_0
  10
557.4361
  20
256.25888
  42
0.27506722
  0
VERTEX
  5
103
  8
Layer_0
  10
555.72742
  20
253.10927
  0
SEQEND
  0
POLYLINE
  5
105
  8
Layer_0
  62
0
  66
1
  10
0
  20
0
  30
0
  0
VERTEX
  5
105
  8
Layer_0
  10
555.73041
  20
253.099
  42
0.39109405
  0
VERTEX
  5
106
  8
Layer_0
  10
515.2326
  20
209.24304
  42
0.39109404
  0
VERTEX
  5
107
  8
Layer_0
  10
555.73059
  20
165.38722
  0
SEQEND
  0
POLYLINE
  5
109
  8
Layer_0
  62
0
  66
1
  10
0
  20
0
  30
0
  0
VERTEX
  5
109
  8
Layer_0
  10
555.72742
  20
165.3981
  42
0.27506793
  0
VERTEX
  5
10a
  8
Layer_0
  10
557.4361
  20
162.2485
  42
0.27506933
  0
VERTEX
  5
10b
  8
Layer_0
  10
561.01935
  20
162.2485
  42
0.27507172
  0
VERTEX
  5
10c
  8
Layer_0
  10
562.72803
  20
165.39813
  0
SEQEND
  0
POLYLINE
  5
10e
  8
Layer_0
  62
0
  66
1
  10
0
  20
0
  30
0
  0
VERTEX
  5
10e
  8
Layer_0
  10
353.73111
  20
253.97888
  0
VERTEX
  5
10f
  8
Layer_0
  10
344.71411
  20
253.97888
  0
VERTEX
  5
110
  8
Layer_0
  10
344.71411
  20
262.99588
  0
VERTEX
  5
111
  8
Layer_0
  10
353.73111
  20
262.99588
  0
VERTEX
  5
112
  8
Layer_0
  10
353.73111
  20
253.97888
  0
SEQEND
  0
POLYLINE
  5
114
  8
Layer_0
  62
0
  66
1
  10
0
  20
0
  30
0
  0
VERTEX
  5
114
  8
Layer_0
  10
632.7262
  20
123.11259
  42
0.27506793
  0
VERTEX
  5
115
  8
Layer_0
  10
631.01752
  20
126.26221
  42
0.27506933
  0
VERTEX
  5
116
  8
Layer_0
  10
627.43427
  20
126.26219
  42
0.27507206
  0
VERTEX
  5
117
  8
Layer_0
  10
625.72559
  20
123.11258
  0
SEQEND
  0
POLYLINE
  5
119
  8
Layer_0
  62
0
  66
1
  10
0
  20
0
  30
0
  0
VERTEX
  5
119
  8
Layer_0
  10
625.72858
  20
123.12348
  42
0.3910941
  0
VERTEX
  5
11a
  8
Layer_0
  10
585.23077
  20
79.267517
  42
0.39109406
  0
VERTEX
  5
11b
  8
Layer_0
  10
625.72876
  20
35.41169
  0
SEQEND
  0
POLYLINE
  5
11d
  8
Layer_0
  62
0
  66
1
  10
0
  20
0
  30
0
  0
VERTEX
  5
11d
  8
Layer_0
  10
625.72559
  20
35.401421
  42
0.27507023
  0
VERTEX
  5
11e
  8
Layer_0
  10
627.43427
  20
32.251816
  42
0.27506872
  0
VERTEX
  5
11f
  8
Layer_0
  10
631.01752
  20
32.251823
  42
0.27507048
  0
VERTEX
  5
120
  8
Layer_0
  10
632.7262
  20
35.401436
  0
SEQEND
  0
POLYLINE
  5
122
  8
Layer_0
  62
0
  66
1
  10
0
  20
0
  30
0
  0
VERTEX
  5
122
  8
Layer_0
  10
632.72321
  20
35.411705
  42
0.39109386
  0
VERTEX
  5
123
  8
Layer_0
  10
673.22101
  20
79.267662
  42
0.39109406
  0
VERTEX
  5
124
  8
Layer_0
  10
632.72302
  20
123.12349
  0
SEQEND
  0
POLYLINE
  5
126
  8
Layer_0
  62
0
  66
1
  10
0
  20
0
  30
0
  0
VERTEX
  5
126
  8
Layer_0
  10
65.743164
  20
123.12348
  42
0.39109389
  0
VERTEX
  5
127
  8
Layer_0
  10
25.245361
  20
79.267517
  42
0.39109406
  0
VERTEX
  5
128
  8
Layer_0
  10
65.743317
  20
35.41169
  0
SEQEND
  0
POLYLINE
  5
12a
  8
Layer_0
  62
0
  66
1
  10
0
  20
0
  30
0
  0
VERTEX
  5
12a
  8
Layer_0
  10
65.740143
  20
35.401421
  42
0.27506541
  0
VERTEX
  5
12b
  8
Layer_0
  10
67.448853
  20
32.251816
  42
0.27506872
  0
VERTEX
  5
12c
  8
Layer_0
  10
71.032104
  20
32.251823
  42
0.27507048
  0
VERTEX
  5
12d
  8
Layer_0
  10
72.740784
  20
35.401436
  0
SEQEND
  0
POLYLINE
  5
12f
  8
Layer_0
  62
0
  66
1
  10
0
  20
0
  30
0
  0
VERTEX
  5
12f
  8
Layer_0
  10
72.737762
  20
35.411705
  42
0.39109387
  0
VERTEX
  5
130
  8
Layer_0
  10
113.2356
  20
79.267662
  42
0.39109403
  0
VERTEX
  5
131
  8
Layer_0
  10
72.73764
  20
123.12349
  0
SEQEND
  0
POLYLINE
  5
133
  8
Layer_0
  62
0
  66
1
  10
0
  20
0
  30
0
  0
VERTEX
  5
133
  8
Layer_0
  10
72.740784
  20
123.11259
  42
0.27507112
  0
VERTEX
  5
134
  8
Layer_0
  10
71.032104
  20
126.26221
  42
0.27506769
  0
VERTEX
  5
135
  8
Layer_0
  10
67.448853
  20
126.26219
  42
0.27506732
  0
VERTEX
  5
136
  8
Layer_0
  10
65.740143
  20
123.11258
  0
SEQEND
  0
POLYLINE
  5
138
  8
Layer_0
  62
0
  66
1
  10
0
  20
0
  30
0
  0
VERTEX
  5
138
  8
Layer_0
  10
143.71541
  20
15.494003
  0
VERTEX
  5
139
  8
Layer_0
  10
134.71957
  20
15.494003
  0
VERTEX
  5
13a
  8
Layer_0
  10
134.71957
  20
24.489838
  0
VERTEX
  5
13b
  8
Layer_0
  10
143.71541
  20
24.489838
  0
VERTEX
  5
13c
  8
Layer_0
  10
143.71541
  20
15.494003
  0
SEQEND
  0
POLYLINE
  5
13e
  8
Layer_0
  62
0
  66
1
  10
0
  20
0
  30
0
  0
VERTEX
  5
13e
  8
Layer_0
  10
64.679047
  20
165.77736
  0
VERTEX
  5
13f
  8
Layer_0
  10
64.679047
  20
156.76036
  0
VERTEX
  5
140
  8
Layer_0
  10
55.683228
  20
156.76036
  0
VERTEX
  5
141
  8
Layer_0
  10
55.683228
  20
165.77736
  0
VERTEX
  5
142
  8
Layer_0
  10
64.679047
  20
165.77736
  0
SEQEND
  0
POLYLINE
  5
144
  8
Layer_0
  62
0
  66
1
  10
0
  20
0
  30
0
  0
VERTEX
  5
144
  8
Layer_0
  10
633.76611
  20
156.76036
  0
VERTEX
  5
145
  8
Layer_0
  10
633.76611
  20
165.77736
  0
VERTEX
  5
146
  8
Layer_0
  10
642.76196
  20
165.77736
  0
VERTEX
  5
147
  8
Layer_0
  10
642.76196
  20
156.76036
  0
VERTEX
  5
148
  8
Layer_0
  10
633.76611
  20
156.76036
  0
SEQEND
  0
POLYLINE
  5
14a
  8
Layer_0
  62
0
  66
1
  10
0
  20
0
  30
0
  0
VERTEX
  5
14a
  8
Layer_0
  10
563.72565
  20
15.494003
  0
VERTEX
  5
14b
  8
Layer_0
  10
554.7298
  20
15.494003
  0
VERTEX
  5
14c
  8
Layer_0
  10
554.7298
  20
24.489838
  0
VERTEX
  5
14d
  8
Layer_0
  10
563.72565
  20
24.489838
  0
VERTEX
  5
14e
  8
Layer_0
  10
563.72565
  20
15.494003
  0
SEQEND
  0
POLYLINE
  5
150
  8
Layer_0
  62
0
  66
1
  10
0
  20
0
  30
0
  0
VERTEX
  5
150
  8
Layer_0
  10
423.72928
  20
15.494003
  0
VERTEX
  5
151
  8
Layer_0
  10
414.71228
  20
15.494003
  0
VERTEX
  5
152
  8
Layer_0
  10
414.71228
  20
24.489838
  0
VERTEX
  5
153
  8
Layer_0
  10
423.72928
  20
24.489838
  0
VERTEX
  5
154
  8
Layer_0
  10
423.72928
  20
15.494003
  0
SEQEND
  0
POLYLINE
  5
156
  8
Layer_0
  62
0
  66
1
  10
0
  20
0
  30
0
  0
VERTEX
  5
156
  8
Layer_0
  10
484.73163
  20
262.99588
  0
VERTEX
  5
157
  8
Layer_0
  10
493.72745
  20
262.99588
  0
VERTEX
  5
158
  8
Layer_0
  10
493.72745
  20
253.97888
  0
VERTEX
  5
159
  8
Layer_0
  10
484.73163
  20
253.97888
  0
VERTEX
  5
15a
  8
Layer_0
  10
484.73163
  20
262.99588
  0
SEQEND
  0
POLYLINE
  5
15c
  8
Layer_0
  62
0
  66
1
  10
0
  20
0
  30
0
  0
VERTEX
  5
15c
  8
Layer_0
  10
274.71594
  20
15.494003
  0
VERTEX
  5
15d
  8
Layer_0
  10
274.71594
  20
24.489838
  0
VERTEX
  5
15e
  8
Layer_0
  10
283.73291
  20
24.489838
  0
VERTEX
  5
15f
  8
Layer_0
  10
283.73291
  20
15.494003
  0
VERTEX
  5
160
  8
Layer_0
  10
274.71594
  20
15.494003
  0
SEQEND
  0
POLYLINE
  5
162
  8
Layer_0
  62
0
  66
1
  10
0
  20
0
  30
0
  0
VERTEX
  5
162
  8
Layer_0
  10
204.71774
  20
262.99588
  0
VERTEX
  5
163
  8
Layer_0
  10
213.71358
  20
262.99588
  0
VERTEX
  5
164
  8
Layer_0
  10
213.71358
  20
253.97888
  0
VERTEX
  5
165
  8
Layer_0
  10
204.71774
  20
253.97888
  0
VERTEX
  5
166
  8
Layer_0
  10
204.71774
  20
262.99588
  0
SEQEND
  0
POLYLINE
  5
168
  8
Layer_0
  62
0
  66
1
  10
0
  20
0
  30
0
  0
VERTEX
  5
168
  8
Layer_0
  10
629.22589
  20
0.02116394
  42
0.25993306
  0
VERTEX
  5
169
  8
Layer_0
  10
688.13068
  20
32.862694
  42
0.25993313
  0
VERTEX
  5
16a
  8
Layer_0
  10
691.16211
  20
100.2359
  0
SEQEND
  0
POLYLINE
  5
16c
  8
Layer_0
  62
0
  66
1
  10
0
  20
0
  30
0
  0
VERTEX
  5
16c
  8
Layer_0
  10
691.17017
  20
100.22418
  0
VERTEX
  5
16d
  8
Layer_0
  10
621.15082
  20
240.19937
  0
SEQEND
  0
POLYLINE
  5
16f
  8
Layer_0
  62
0
  66
1
  10
0
  20
0
  30
0
  0
VERTEX
  5
16f
  8
Layer_0
  10
7.3042297
  20
100.2359
  42
0.25993283
  0
VERTEX
  5
170
  8
Layer_0
  10
10.335693
  20
32.862694
  42
0.25993306
  0
VERTEX
  5
171
  8
Layer_0
  10
69.240479
  20
0.02116394
  0
SEQEND
  0
POLYLINE
  5
173
  8
Layer_0
  62
0
  66
1
  10
0
  20
0
  30
0
  0
VERTEX
  5
173
  8
Layer_0
  10
69.229889
  20
0
  0
VERTEX
  5
174
  8
Layer_0
  10
629.21533
  20
0
  0
SEQEND
  0
POLYLINE
  5
176
  8
Layer_0
  62
0
  66
1
  10
0
  20
0
  30
0
  0
VERTEX
  5
176
  8
Layer_0
  10
139.23865
  20
278.48987
  42
0.28407925
  0
VERTEX
  5
177
  8
Layer_0
  10
77.302399
  20
240.21109
  0
SEQEND
  0
POLYLINE
  5
179
  8
Layer_0
  62
0
  66
1
  10
0
  20
0
  30
0
  0
VERTEX
  5
179
  8
Layer_0
  10
77.294403
  20
240.19937
  0
VERTEX
  5
17a
  8
Layer_0
  10
7.2750549
  20
100.22418
  0
SEQEND
  0
POLYLINE
  5
17c
  8
Layer_0
  62
0
  66
1
  10
0
  20
0
  30
0
  0
VERTEX
  5
17c
  8
Layer_0
  10
621.16394
  20
240.21109
  42
0.28407968
  0
VERTEX
  5
17d
  8
Layer_0
  10
559.22772
  20
278.48987
  0
SEQEND
  0
POLYLINE
  5
17f
  8
Layer_0
  62
0
  66
1
  10
0
  20
0
  30
0
  0
VERTEX
  5
17f
  8
Layer_0
  10
559.21716
  20
278.48987
  0
VERTEX
  5
180
  8
Layer_0
  10
139.22807
  20
278.48987
  0
SEQEND
  0
ENDSEC
  0
EOF
